<svg width="25" height="19" viewBox="0 0 25 19" fill="none" xmlns="http://www.w3.org/2000/svg">
<path d="M20.8302 2.00753C19.2563 1.29402 17.5912 0.787046 15.8789 0.5C15.6656 0.87359 15.4165 1.37607 15.2446 1.77582C13.3985 1.50687 11.5693 1.50687 9.75715 1.77582C9.5854 1.37616 9.33059 0.87359 9.11534 0.5C7.40139 0.787178 5.73486 1.29545 4.16018 2.01126C1.02668 6.59907 0.177212 11.0728 0.6019 15.4832C2.68024 16.9869 4.69437 17.9004 6.67455 18.4982C7.16668 17.8425 7.60171 17.1483 7.97515 16.4228C7.26417 16.1605 6.57877 15.8373 5.92709 15.4571C6.09858 15.3339 6.26604 15.2056 6.42921 15.0722C10.3781 16.8618 14.6689 16.8618 18.5708 15.0722C18.7346 15.2047 18.9021 15.333 19.0728 15.4571C18.4201 15.8383 17.7334 16.1622 17.021 16.4247C17.3966 17.1532 17.8308 17.848 18.3216 18.5C20.3036 17.9023 22.3196 16.9888 24.398 15.4832C24.8964 10.3705 23.5467 5.93781 20.8302 2.00753ZM8.51318 12.7709C7.32771 12.7709 6.35552 11.6986 6.35552 10.3929C6.35552 9.08722 7.30699 8.01313 8.51318 8.01313C9.71946 8.01313 10.6916 9.08531 10.6708 10.3929C10.6727 11.6986 9.71946 12.7709 8.51318 12.7709ZM16.4867 12.7709C15.3012 12.7709 14.3291 11.6986 14.3291 10.3929C14.3291 9.08722 15.2805 8.01313 16.4867 8.01313C17.693 8.01313 18.6651 9.08531 18.6444 10.3929C18.6444 11.6986 17.693 12.7709 16.4867 12.7709Z" fill="white"/>
</svg>
