<svg width="22" height="21" viewBox="0 0 22 21" fill="none" xmlns="http://www.w3.org/2000/svg">
<path fill-rule="evenodd" clip-rule="evenodd" d="M6.67114 0.063C7.79082 0.0114545 8.14782 0 11 0C13.8522 0 14.2092 0.0124091 15.3279 0.063C16.4466 0.113591 17.2103 0.292091 17.8785 0.550773C18.5781 0.815182 19.2129 1.2285 19.7379 1.76305C20.2725 2.28709 20.6848 2.92091 20.9483 3.62155C21.2079 4.28973 21.3855 5.05336 21.437 6.17018C21.4885 7.29177 21.5 7.64877 21.5 10.5C21.5 13.3522 21.4876 13.7092 21.437 14.8289C21.3864 15.9457 21.2079 16.7093 20.9483 17.3775C20.6848 18.0782 20.2718 18.7131 19.7379 19.2379C19.2129 19.7725 18.5781 20.1848 17.8785 20.4483C17.2103 20.7079 16.4466 20.8855 15.3298 20.937C14.2092 20.9885 13.8522 21 11 21C8.14782 21 7.79082 20.9876 6.67114 20.937C5.55432 20.8864 4.79068 20.7079 4.1225 20.4483C3.42179 20.1848 2.78692 19.7717 2.26209 19.2379C1.72791 18.7135 1.31453 18.079 1.05077 17.3785C0.792091 16.7103 0.614545 15.9466 0.563 14.8298C0.511455 13.7082 0.5 13.3512 0.5 10.5C0.5 7.64782 0.512409 7.29082 0.563 6.17209C0.613591 5.05336 0.792091 4.28973 1.05077 3.62155C1.31492 2.92099 1.72861 2.28644 2.26305 1.76209C2.78713 1.22802 3.42136 0.814651 4.12155 0.550773C4.78973 0.292091 5.55432 0.114545 6.67114 0.063ZM15.243 1.953C14.1357 1.90241 13.8035 1.89191 11 1.89191C8.1965 1.89191 7.86432 1.90241 6.75705 1.953C5.73282 1.99977 5.17727 2.17064 4.80691 2.31477C4.31723 2.50568 3.96691 2.73191 3.59941 3.09941C3.25104 3.43832 2.98294 3.85091 2.81477 4.30691C2.67064 4.67727 2.49977 5.23282 2.453 6.25705C2.40241 7.36432 2.39191 7.6965 2.39191 10.5C2.39191 13.3035 2.40241 13.6357 2.453 14.743C2.49977 15.7672 2.67064 16.3227 2.81477 16.6931C2.98277 17.1484 3.251 17.5617 3.59941 17.9006C3.93827 18.249 4.35159 18.5172 4.80691 18.6852C5.17727 18.8294 5.73282 19.0002 6.75705 19.047C7.86432 19.0976 8.19555 19.1081 11 19.1081C13.8045 19.1081 14.1357 19.0976 15.243 19.047C16.2672 19.0002 16.8227 18.8294 17.1931 18.6852C17.6828 18.4943 18.0331 18.2681 18.4006 17.9006C18.749 17.5617 19.0172 17.1484 19.1852 16.6931C19.3294 16.3227 19.5002 15.7672 19.547 14.743C19.5976 13.6357 19.6081 13.3035 19.6081 10.5C19.6081 7.6965 19.5976 7.36432 19.547 6.25705C19.5002 5.23282 19.3294 4.67727 19.1852 4.30691C18.9943 3.81723 18.7681 3.46691 18.4006 3.09941C18.0617 2.75107 17.6491 2.48297 17.1931 2.31477C16.8227 2.17064 16.2672 1.99977 15.243 1.953ZM9.65886 13.7369C10.4079 14.0486 11.2419 14.0907 12.0184 13.8559C12.795 13.6211 13.466 13.124 13.9167 12.4494C14.3675 11.7749 14.5701 10.9647 14.4899 10.1574C14.4097 9.3501 14.0517 8.59566 13.477 8.02295C13.1107 7.65686 12.6678 7.37655 12.1801 7.20219C11.6925 7.02782 11.1722 6.96375 10.6568 7.01459C10.1414 7.06542 9.64374 7.2299 9.19954 7.49617C8.75534 7.76244 8.37571 8.12389 8.08797 8.55449C7.80023 8.9851 7.61154 9.47414 7.53549 9.98642C7.45944 10.4987 7.49792 11.0215 7.64815 11.5171C7.79839 12.0127 8.05664 12.4689 8.40432 12.8527C8.75201 13.2365 9.18047 13.5385 9.65886 13.7369ZM7.18373 6.68373C7.68489 6.18257 8.27985 5.78503 8.93465 5.5138C9.58944 5.24257 10.2913 5.10297 11 5.10297C11.7087 5.10297 12.4106 5.24257 13.0654 5.5138C13.7201 5.78503 14.3151 6.18257 14.8163 6.68373C15.3174 7.18489 15.715 7.77985 15.9862 8.43465C16.2574 9.08944 16.397 9.79125 16.397 10.5C16.397 11.2087 16.2574 11.9106 15.9862 12.5654C15.715 13.2201 15.3174 13.8151 14.8163 14.3163C13.8041 15.3284 12.4314 15.897 11 15.897C9.56862 15.897 8.19587 15.3284 7.18373 14.3163C6.17159 13.3041 5.60298 11.9314 5.60298 10.5C5.60298 9.06862 6.17159 7.69587 7.18373 6.68373ZM17.594 5.90673C17.7182 5.78957 17.8176 5.6487 17.8864 5.49243C17.9551 5.33616 17.9919 5.16769 17.9944 4.99698C17.9968 4.82627 17.9651 4.6568 17.9009 4.49859C17.8367 4.34039 17.7414 4.19667 17.6207 4.07595C17.5 3.95522 17.3562 3.85995 17.198 3.79577C17.0398 3.73158 16.8704 3.69979 16.6997 3.70228C16.5289 3.70477 16.3605 3.74149 16.2042 3.81026C16.0479 3.87902 15.9071 3.97845 15.7899 4.10264C15.5621 4.34416 15.4373 4.66498 15.4422 4.99698C15.447 5.32898 15.581 5.64602 15.8158 5.8808C16.0506 6.11559 16.3677 6.24963 16.6997 6.25447C17.0317 6.25931 17.3525 6.13457 17.594 5.90673Z" fill="white"/>
</svg>
