<svg width="28" height="27" viewBox="0 0 28 27" fill="none" xmlns="http://www.w3.org/2000/svg">
<path d="M14 0C6.54487 0 0.5 6.04487 0.5 13.5C0.5 20.9551 6.54487 27 14 27C21.4551 27 27.5 20.9551 27.5 13.5C27.5 6.04487 21.4551 0 14 0ZM21.7143 7.64498L20.4848 8.82321C20.3763 8.90458 20.3251 9.03717 20.3462 9.16674V17.8363C20.3251 17.9689 20.3763 18.1014 20.4848 18.1798L21.6902 19.358V19.6202H15.6393V19.3701L16.8838 18.1617C17.0074 18.0382 17.0074 18.002 17.0074 17.8182V10.803L13.542 19.5901H13.0749L9.04297 10.803V16.6942C9.00681 16.9413 9.0942 17.1914 9.26897 17.3692L10.8902 19.3309V19.5931H6.28571V19.3309L7.90692 17.3692C7.99234 17.281 8.05591 17.174 8.09253 17.0567C8.12916 16.9395 8.13784 16.8154 8.11786 16.6942V9.88393C8.13895 9.69408 8.06663 9.51027 7.92199 9.38069L6.48159 7.64498V7.38281H10.9565L14.4098 14.9615L17.4503 7.38884H21.7143V7.64498Z" fill="white"/>
</svg>
