<svg width="22" height="19" viewBox="0 0 22 19" fill="none" xmlns="http://www.w3.org/2000/svg">
<path d="M19.9453 0.00194539C19.686 0.0209511 19.4314 0.0822365 19.1916 0.183411H19.1883C18.9581 0.275364 17.8634 0.7392 16.1992 1.44228L10.2354 3.97222C5.95611 5.78687 1.74949 7.57386 1.74949 7.57386L1.79958 7.55433C1.79958 7.55433 1.50955 7.65035 1.20659 7.85949C1.01943 7.97945 0.858378 8.13641 0.733178 8.32088C0.584529 8.54059 0.464963 8.87667 0.509396 9.22414C0.582105 9.81167 0.960192 10.164 1.23164 10.3585C1.50632 10.5554 1.76807 10.6474 1.76807 10.6474H1.77453L5.7194 11.986C5.89633 12.5581 6.92152 15.953 7.16793 16.735C7.31334 17.2021 7.45472 17.4943 7.63165 17.7172C7.71728 17.8311 7.81746 17.9264 7.93783 18.0028C8.00041 18.0395 8.06714 18.0685 8.13657 18.0891L8.09618 18.0793C8.1083 18.0826 8.11799 18.0924 8.12688 18.0956C8.15919 18.1046 8.18101 18.1078 8.22221 18.1143C8.8467 18.3047 9.34839 17.9141 9.34839 17.9141L9.37666 17.8914L11.7058 15.7553L15.6094 18.7718L15.6983 18.8101C16.5118 19.1698 17.3359 18.9696 17.7713 18.6164C18.21 18.2608 18.3805 17.8059 18.3805 17.8059L18.4087 17.7327L19.917 9.9496L21.4254 2.16651C21.511 1.78242 21.5328 1.42275 21.4383 1.07365C21.3408 0.720342 21.1158 0.416474 20.8073 0.221657C20.5483 0.0630698 20.248 -0.0134763 19.9453 0.00194539ZM19.8637 1.67013C19.8605 1.72139 19.8702 1.7157 19.8476 1.81416V1.82311L16.8592 17.2273C16.8463 17.2493 16.8245 17.2973 16.7647 17.3453C16.7017 17.3958 16.6516 17.4275 16.389 17.3226L11.6145 13.6355L8.73036 16.2834L9.33627 12.3855L17.1371 5.06182C17.4587 4.76074 17.3512 4.69727 17.3512 4.69727C17.3738 4.32782 16.8657 4.58904 16.8657 4.58904L7.02897 10.7271L7.02574 10.7109L2.31096 9.11184V9.10859L2.29885 9.10615C2.30711 9.10338 2.3152 9.10012 2.32308 9.09638L2.34893 9.08336L2.37398 9.07441C2.37398 9.07441 6.58383 7.28742 10.8632 5.47277C13.0057 4.56381 15.1643 3.64835 16.8245 2.94201C17.8091 2.52456 18.7947 2.10955 19.7813 1.69698C19.8476 1.67094 19.8161 1.67094 19.8637 1.67094V1.67013Z" fill="white"/>
</svg>
